<svg xmlns="http://www.w3.org/2000/svg" width="800" height="636.77" viewBox="0 0 800 636.77">
  <defs>
    <style>
      .cls-1 {
        fill: #fff;
      }
    </style>
  </defs>
  <g id="Слой_2" data-name="Слой 2">
    <g id="Capa_1" data-name="Capa 1">
      <g>
        <polygon class="cls-1" points="234.6 285.92 234.6 249.39 135.57 249.39 135.57 150.35 99.04 150.35 99.04 249.39 0 249.39 0 285.92 99.04 285.92 99.04 384.95 135.57 384.95 135.57 285.92 234.6 285.92"/>
        <path class="cls-1" d="M631.68,371.21H355.21c-92.81,0-168.32,75.51-168.32,168.32v97.24H800V539.53C800,446.72,724.49,371.21,631.68,371.21Zm131.79,229H223.42V539.53c0-72.67,59.12-131.79,131.79-131.79H631.68c72.67,0,131.79,59.12,131.79,131.79v60.71Z"/>
        <path class="cls-1" d="M493.45,353.91c97.57,0,177-79.38,177-177S591,0,493.45,0s-177,79.38-177,177S395.87,353.91,493.45,353.91Zm0-317.38c77.43,0,140.42,63,140.42,140.43s-63,140.43-140.42,140.43S353,254.39,353,177,416,36.53,493.45,36.53Z"/>
      </g>
    </g>
  </g>
</svg>
