<svg xmlns="http://www.w3.org/2000/svg" width="38.04" height="40" viewBox="0 0 38.04 40">
  <defs>
    <style>
      .cls-1 {
        fill: #fff;
      }
    </style>
  </defs>
  <g id="Слой_2" data-name="Слой 2">
    <g id="Слой_1-2" data-name="Слой 1">
      <path class="cls-1" d="M19,0A7,7,0,0,0,12.1,6H5.26L5,6,4.78,6H1.52a1.5,1.5,0,0,0,0,3H3.66L6.18,35a5.51,5.51,0,0,0,5.47,5H26.39a5.51,5.51,0,0,0,5.47-5L34.38,9h2.14a1.5,1.5,0,0,0,0-3H33.27a1.29,1.29,0,0,0-.48,0H25.94A7,7,0,0,0,19,0Zm0,3a4,4,0,0,1,3.86,3H15.16A4,4,0,0,1,19,3ZM6.67,9h24.7L28.88,34.74A2.48,2.48,0,0,1,26.39,37H11.65a2.49,2.49,0,0,1-2.49-2.26Zm8.83,5A1.5,1.5,0,0,0,14,15.5v15a1.5,1.5,0,1,0,3,0v-15A1.5,1.5,0,0,0,15.54,14Zm7,0A1.5,1.5,0,0,0,21,15.5v15a1.5,1.5,0,0,0,3,0v-15A1.5,1.5,0,0,0,22.54,14Z"/>
    </g>
  </g>
</svg>
