<svg xmlns="http://www.w3.org/2000/svg" width="1099.81" height="902.27" viewBox="0 0 1099.81 902.27">
  <defs>
    <style>
      .cls-1 {
        fill: #fff;
      }
    </style>
  </defs>
  <path class="cls-1" d="M131.48,355.7V223.84h81.93V355.15H345.06v82H213.69V568.71h-82V437.49H0V355.7Z"/>
  <path class="cls-1" d="M1084.18,672.69a0,0,0,0,0,0,0,237,237,0,0,0-26.3-50,239.71,239.71,0,0,0-49.54-52.63A237.12,237.12,0,0,0,861.7,519.59H487.53C356,519.59,249.42,626.2,249.42,757.71V902.27h850.39V757.71A237.47,237.47,0,0,0,1084.18,672.69ZM334.46,822.36V756.29A158.7,158.7,0,0,1,418.67,616.1l.18-.09c21-10.52,45-16,72-16.08H857.8c33.66.07,62.54,8.59,87,24.73l0,0a158.6,158.6,0,0,1,69.95,131.61v66.07Z"/>
  <path class="cls-1" d="M674.62,0C533.72,0,419.5,114.22,419.5,255.12S533.72,510.23,674.62,510.23,929.73,396,929.73,255.12,815.51,0,674.62,0Zm0,425.19A170.08,170.08,0,1,1,844.69,255.12,170.07,170.07,0,0,1,674.61,425.19Z"/>
</svg>
